<mxfile host="app.diagrams.net" modified="2020-11-09T12:31:14.052Z" agent="5.0 (Windows NT 10.0; Win64; x64) AppleWebKit/537.36 (KHTML, like Gecko) Chrome/86.0.4240.183 Safari/537.36" etag="wQdM-tUnCcwzoXxJquqM" version="13.9.2" type="github" pages="3">
  <diagram id="VrAmW0rYc-qIEFf1zxZN" name="Page-1">
    <mxGraphModel dx="744" dy="393" grid="1" gridSize="10" guides="1" tooltips="1" connect="1" arrows="1" fold="1" page="1" pageScale="1" pageWidth="850" pageHeight="1100" math="0" shadow="0">
      <root>
        <mxCell id="0" />
        <mxCell id="1" parent="0" />
        <mxCell id="opm_W8AunlEmkxyJHuK0-2" value="Kubernetes" style="whiteSpace=wrap;html=1;aspect=fixed;" vertex="1" parent="1">
          <mxGeometry x="400" y="110" width="100" height="100" as="geometry" />
        </mxCell>
        <mxCell id="opm_W8AunlEmkxyJHuK0-11" style="edgeStyle=orthogonalEdgeStyle;rounded=0;orthogonalLoop=1;jettySize=auto;html=1;" edge="1" parent="1" source="opm_W8AunlEmkxyJHuK0-6" target="opm_W8AunlEmkxyJHuK0-2">
          <mxGeometry relative="1" as="geometry" />
        </mxCell>
        <mxCell id="opm_W8AunlEmkxyJHuK0-6" value="VM" style="rounded=1;whiteSpace=wrap;html=1;" vertex="1" parent="1">
          <mxGeometry x="120" y="280" width="80" height="90" as="geometry" />
        </mxCell>
        <mxCell id="opm_W8AunlEmkxyJHuK0-8" value="" style="rounded=1;whiteSpace=wrap;html=1;" vertex="1" parent="1">
          <mxGeometry x="60" y="70" width="240" height="140" as="geometry" />
        </mxCell>
        <mxCell id="opm_W8AunlEmkxyJHuK0-9" value="username/passed&lt;br&gt;give access&amp;nbsp;" style="shape=process;whiteSpace=wrap;html=1;backgroundOutline=1;" vertex="1" parent="1">
          <mxGeometry x="110" y="90" width="120" height="60" as="geometry" />
        </mxCell>
        <mxCell id="opm_W8AunlEmkxyJHuK0-12" value="" style="endArrow=classic;html=1;exitX=1;exitY=0.75;exitDx=0;exitDy=0;entryX=0;entryY=0.5;entryDx=0;entryDy=0;" edge="1" parent="1" source="opm_W8AunlEmkxyJHuK0-9" target="opm_W8AunlEmkxyJHuK0-2">
          <mxGeometry width="50" height="50" relative="1" as="geometry">
            <mxPoint x="360" y="230" as="sourcePoint" />
            <mxPoint x="410" y="180" as="targetPoint" />
          </mxGeometry>
        </mxCell>
      </root>
    </mxGraphModel>
  </diagram>
  <diagram id="yZjTaAXCPf4Csx_pZQZ-" name="Page-2">
    <mxGraphModel dx="744" dy="393" grid="1" gridSize="10" guides="1" tooltips="1" connect="1" arrows="1" fold="1" page="1" pageScale="1" pageWidth="850" pageHeight="1100" math="0" shadow="0">
      <root>
        <mxCell id="iEpt5HjK6bG6h61vmXEp-0" />
        <mxCell id="iEpt5HjK6bG6h61vmXEp-1" parent="iEpt5HjK6bG6h61vmXEp-0" />
        <mxCell id="iEpt5HjK6bG6h61vmXEp-2" value="" style="rounded=1;whiteSpace=wrap;html=1;" vertex="1" parent="iEpt5HjK6bG6h61vmXEp-1">
          <mxGeometry x="80" y="80" width="430" height="270" as="geometry" />
        </mxCell>
        <mxCell id="iEpt5HjK6bG6h61vmXEp-3" value="" style="rounded=0;whiteSpace=wrap;html=1;" vertex="1" parent="iEpt5HjK6bG6h61vmXEp-1">
          <mxGeometry x="110" y="100" width="160" height="210" as="geometry" />
        </mxCell>
        <mxCell id="iEpt5HjK6bG6h61vmXEp-4" value="" style="shape=parallelogram;perimeter=parallelogramPerimeter;whiteSpace=wrap;html=1;fixedSize=1;" vertex="1" parent="iEpt5HjK6bG6h61vmXEp-1">
          <mxGeometry x="290" y="110" width="200" height="160" as="geometry" />
        </mxCell>
        <mxCell id="iEpt5HjK6bG6h61vmXEp-5" value="" style="shape=process;whiteSpace=wrap;html=1;backgroundOutline=1;" vertex="1" parent="iEpt5HjK6bG6h61vmXEp-1">
          <mxGeometry x="100" y="20" width="360" height="60" as="geometry" />
        </mxCell>
        <mxCell id="iEpt5HjK6bG6h61vmXEp-6" value="" style="ellipse;whiteSpace=wrap;html=1;" vertex="1" parent="iEpt5HjK6bG6h61vmXEp-1">
          <mxGeometry x="130" y="110" width="50" height="50" as="geometry" />
        </mxCell>
        <mxCell id="iEpt5HjK6bG6h61vmXEp-7" value="" style="ellipse;whiteSpace=wrap;html=1;" vertex="1" parent="iEpt5HjK6bG6h61vmXEp-1">
          <mxGeometry x="130" y="200" width="50" height="50" as="geometry" />
        </mxCell>
      </root>
    </mxGraphModel>
  </diagram>
  <diagram id="kKIrXBB3QsXdM_Bg0pZ6" name="Page-3">
    <mxGraphModel dx="1063" dy="561" grid="1" gridSize="10" guides="1" tooltips="1" connect="1" arrows="1" fold="1" page="1" pageScale="1" pageWidth="850" pageHeight="1100" math="0" shadow="0">
      <root>
        <mxCell id="77gpBBVOJ9G52nrokZJp-0" />
        <mxCell id="77gpBBVOJ9G52nrokZJp-1" parent="77gpBBVOJ9G52nrokZJp-0" />
        <mxCell id="77gpBBVOJ9G52nrokZJp-14" style="edgeStyle=orthogonalEdgeStyle;rounded=0;orthogonalLoop=1;jettySize=auto;html=1;" edge="1" parent="77gpBBVOJ9G52nrokZJp-1" source="77gpBBVOJ9G52nrokZJp-13" target="77gpBBVOJ9G52nrokZJp-2">
          <mxGeometry relative="1" as="geometry" />
        </mxCell>
        <mxCell id="77gpBBVOJ9G52nrokZJp-15" style="edgeStyle=orthogonalEdgeStyle;rounded=0;orthogonalLoop=1;jettySize=auto;html=1;" edge="1" parent="77gpBBVOJ9G52nrokZJp-1" source="77gpBBVOJ9G52nrokZJp-13" target="77gpBBVOJ9G52nrokZJp-3">
          <mxGeometry relative="1" as="geometry" />
        </mxCell>
        <mxCell id="77gpBBVOJ9G52nrokZJp-13" value="" style="rounded=1;whiteSpace=wrap;html=1;" vertex="1" parent="77gpBBVOJ9G52nrokZJp-1">
          <mxGeometry x="70" y="300" width="230" height="110" as="geometry" />
        </mxCell>
        <mxCell id="77gpBBVOJ9G52nrokZJp-2" value="" style="rounded=1;whiteSpace=wrap;html=1;" vertex="1" parent="77gpBBVOJ9G52nrokZJp-1">
          <mxGeometry x="425" y="70" width="120" height="210" as="geometry" />
        </mxCell>
        <mxCell id="77gpBBVOJ9G52nrokZJp-3" value="" style="rounded=1;whiteSpace=wrap;html=1;" vertex="1" parent="77gpBBVOJ9G52nrokZJp-1">
          <mxGeometry x="590" y="70" width="120" height="210" as="geometry" />
        </mxCell>
        <mxCell id="77gpBBVOJ9G52nrokZJp-4" value="" style="ellipse;whiteSpace=wrap;html=1;" vertex="1" parent="77gpBBVOJ9G52nrokZJp-1">
          <mxGeometry x="80" y="310" width="80" height="70" as="geometry" />
        </mxCell>
        <mxCell id="77gpBBVOJ9G52nrokZJp-5" value="" style="rounded=1;whiteSpace=wrap;html=1;" vertex="1" parent="77gpBBVOJ9G52nrokZJp-1">
          <mxGeometry x="70" y="70" width="290" height="210" as="geometry" />
        </mxCell>
        <mxCell id="77gpBBVOJ9G52nrokZJp-6" value="Shashank" style="shape=umlActor;verticalLabelPosition=bottom;verticalAlign=top;html=1;outlineConnect=0;" vertex="1" parent="77gpBBVOJ9G52nrokZJp-1">
          <mxGeometry x="50" y="10" width="30" height="60" as="geometry" />
        </mxCell>
        <mxCell id="77gpBBVOJ9G52nrokZJp-7" value="Dhruv" style="shape=umlActor;verticalLabelPosition=bottom;verticalAlign=top;html=1;outlineConnect=0;" vertex="1" parent="77gpBBVOJ9G52nrokZJp-1">
          <mxGeometry x="120" y="10" width="30" height="60" as="geometry" />
        </mxCell>
        <mxCell id="77gpBBVOJ9G52nrokZJp-10" value="" style="rounded=0;whiteSpace=wrap;html=1;" vertex="1" parent="77gpBBVOJ9G52nrokZJp-1">
          <mxGeometry x="90" y="110" width="180" height="90" as="geometry" />
        </mxCell>
        <mxCell id="77gpBBVOJ9G52nrokZJp-11" value="" style="rounded=0;whiteSpace=wrap;html=1;" vertex="1" parent="77gpBBVOJ9G52nrokZJp-1">
          <mxGeometry x="437.5" y="200" width="85" height="50" as="geometry" />
        </mxCell>
        <mxCell id="77gpBBVOJ9G52nrokZJp-12" value="" style="rounded=0;whiteSpace=wrap;html=1;" vertex="1" parent="77gpBBVOJ9G52nrokZJp-1">
          <mxGeometry x="600" y="200" width="85" height="50" as="geometry" />
        </mxCell>
      </root>
    </mxGraphModel>
  </diagram>
</mxfile>
